<?xml version="1.0" standalone="no"?>
<!DOCTYPE svg PUBLIC "-//W3C//DTD SVG 20010904//EN"
 "http://www.w3.org/TR/2001/REC-SVG-20010904/DTD/svg10.dtd">
<svg version="1.0" xmlns="http://www.w3.org/2000/svg"
 width="371.000000pt" height="136.000000pt" viewBox="0 0 371.000000 136.000000"
 preserveAspectRatio="xMidYMid meet">

<g transform="translate(0.000000,136.000000) scale(0.100000,-0.100000)"
fill="#000000" stroke="none">
<path d="M1230 1081 c-173 -54 -395 -122 -492 -151 -144 -44 -178 -58 -178
-72 0 -11 8 -18 20 -18 21 0 918 136 958 145 21 5 22 10 22 95 0 49 -3 91 -7
93 -5 3 -150 -39 -323 -92z"/>
<path d="M1680 680 l0 -450 25 0 25 0 0 450 0 450 -25 0 -25 0 0 -450z"/>
<path d="M1941 1042 c-66 -33 -97 -106 -79 -184 21 -93 118 -141 217 -107 34
12 38 25 18 53 -10 14 -17 15 -40 7 -44 -17 -72 -13 -101 14 -21 20 -26 33
-26 73 0 75 57 120 118 93 22 -11 28 -10 39 5 19 26 16 39 -12 52 -37 17 -95
15 -134 -6z"/>
<path d="M2256 1042 c-7 -12 -106 -277 -106 -285 0 -4 14 -7 31 -7 24 0 32 6
40 30 10 29 14 30 69 30 55 0 58 -2 70 -30 10 -25 18 -30 46 -30 l34 0 -19 48
c-10 26 -35 93 -56 150 -38 101 -38 102 -71 102 -18 0 -35 -4 -38 -8z m53
-119 c7 -21 15 -44 17 -50 4 -9 -6 -13 -34 -13 l-40 0 16 50 c9 28 19 50 22
50 4 0 12 -17 19 -37z"/>
<path d="M2480 900 l0 -150 30 0 c29 0 30 1 30 49 0 28 4 53 10 56 17 11 44
-12 70 -59 23 -42 28 -46 63 -46 l39 0 -23 38 c-12 20 -28 46 -36 57 -11 17
-10 23 13 46 37 38 37 104 0 136 -24 20 -38 23 -112 23 l-84 0 0 -150z m144
84 c19 -18 20 -28 6 -55 -8 -14 -21 -19 -50 -19 l-40 0 0 45 c0 45 0 45 34 45
19 0 42 -7 50 -16z"/>
<path d="M2770 900 l0 -150 100 0 100 0 0 30 0 30 -70 0 -70 0 0 30 0 30 60 0
60 0 0 30 0 30 -60 0 -60 0 0 30 0 30 70 0 70 0 0 30 0 30 -100 0 -100 0 0
-150z"/>
<path d="M3030 900 l0 -150 100 0 100 0 0 30 0 30 -70 0 -70 0 0 30 0 30 60 0
60 0 0 30 0 30 -60 0 -60 0 0 30 0 30 70 0 70 0 0 30 0 30 -100 0 -100 0 0
-150z"/>
<path d="M3290 900 l0 -150 29 0 c29 0 30 2 33 53 4 72 30 72 73 0 28 -49 33
-53 68 -53 l39 0 -23 38 c-12 20 -28 46 -36 57 -11 17 -9 23 13 47 38 39 37
102 0 135 -24 20 -38 23 -112 23 l-84 0 0 -150z m144 84 c19 -18 20 -28 6 -55
-8 -14 -21 -19 -50 -19 l-40 0 0 45 c0 45 0 45 34 45 19 0 42 -7 50 -16z"/>
<path d="M1103 723 c15 -2 37 -2 50 0 12 2 0 4 -28 4 -27 0 -38 -2 -22 -4z"/>
<path d="M627 713 c24 -2 62 -2 86 0 23 2 4 4 -43 4 -47 0 -66 -2 -43 -4z"/>
<path d="M710 660 l-385 -5 -3 -28 c-2 -16 2 -29 10 -32 12 -4 977 -125 999
-125 5 0 9 45 9 100 l0 100 -122 -2 c-68 -2 -296 -5 -508 -8z"/>
<path d="M180 493 l0 -69 501 -122 c276 -67 506 -119 510 -116 8 5 13 234 6
234 -2 0 -181 24 -398 54 -217 30 -432 60 -479 66 -47 6 -97 13 -112 16 l-28
6 0 -69z"/>
</g>
</svg>
